<?xml version="1.0" encoding="utf-8"?>
<svg viewBox="0 0 512 512" xmlns="http://www.w3.org/2000/svg">
  <rect width="100%" height="100%" fill="#C93636"/>
  <g transform="matrix(1, 0, 0, 1, -10.433998107910156, 116.81999969482422)">
    <g style="transform-origin: 225.5px 224px;">
      <path d="M 323.345 77.239 L 323.345 160.061 L 266.433 201.121 L 209.522 160.039 L 209.522 77.239 L 266.433 120.263 L 323.345 77.239 Z" style="fill: white;"/>
      <path d="M 130.691 206.816 L 63.434 206.816 L 63.434 71.544 L 130.691 71.544 L 130.691 206.816 Z" style="fill: white;"/>
      <path d="M 469.434 206.816 L 402.177 206.816 L 402.177 71.544 L 469.434 71.544 L 469.434 206.816 Z" style="fill: white;"/>
      <path d="M 203.882 243.18 L 136.625 243.18 L 136.625 35.18 L 203.882 35.18 L 203.882 243.18 Z" style="fill: white;"/>
      <path d="M 396.475 243.18 L 329.218 243.18 L 329.218 35.18 L 396.475 35.18 L 396.475 243.18 Z" style="fill: white;"/>
    </g>
  </g>
</svg>